HIERARCHY
	ROOT pelvis
	{
		OFFSET 0 0 0 
		CHANNELS 6 Xposition Yposition Zposition Zrotation Xrotation Yrotation
		JOINT lfemur_phantom
		{
			OFFSET 0 0.0899607 0 
			CHANNELS 3 Zrotation Xrotation Yrotation
			JOINT lfemur
			{
				OFFSET 0 0 -0.426035 
				CHANNELS 3 Zrotation Xrotation Yrotation
				JOINT ltibia
				{
					OFFSET 0 0 -0.409933 
					CHANNELS 3 Zrotation Xrotation Yrotation
					JOINT lfoot
					{
						OFFSET 0.105631 0 0.00135511 
						CHANNELS 3 Zrotation Xrotation Yrotation
						End Site
						{
							OFFSET 0.0352103 0 0.000451703
						}
					}
				}
			}
		}
		JOINT rfemur_phantom
		{
			OFFSET 0 -0.0899607 0 
			CHANNELS 3 Zrotation Xrotation Yrotation
			JOINT rfemur
			{
				OFFSET 0 0 -0.430137 
				CHANNELS 3 Zrotation Xrotation Yrotation
				JOINT rtibia
				{
					OFFSET 0 0 -0.390377 
					CHANNELS 3 Zrotation Xrotation Yrotation
					JOINT rfoot
					{
						OFFSET 0.106801 0 -0.00121178 
						CHANNELS 3 Zrotation Xrotation Yrotation
						End Site
						{
							OFFSET 0.0356003 0 -0.000403927
						}
					}
				}
			}
		}
		JOINT lowerback_phantom
		{
			OFFSET -0.05 0 0.107967 
			CHANNELS 3 Zrotation Xrotation Yrotation
			JOINT lowerback
			{
				OFFSET 0.0167886 0 0.161801 
				CHANNELS 3 Zrotation Xrotation Yrotation
				JOINT upperback
				{
					OFFSET 0 0 0 
					CHANNELS 3 Zrotation Xrotation Yrotation
					JOINT lclavicle_phantom
					{
						OFFSET 0 0 0.199349 
						CHANNELS 3 Zrotation Xrotation Yrotation
						JOINT lclavicle
						{
							OFFSET 0 0.164108 -0.0174105 
							CHANNELS 3 Zrotation Xrotation Yrotation
							JOINT lhumerus
							{
								OFFSET 0 0 -0.275026 
								CHANNELS 3 Zrotation Xrotation Yrotation
								JOINT lradius
								{
									OFFSET 0 0 -0.248775 
									CHANNELS 3 Zrotation Xrotation Yrotation
									End Site
									{
										OFFSET 0 0 -0.082925
									}
								}
							}
						}
					}
					JOINT rclavicle_phantom
					{
						OFFSET 0 0 0.199349 
						CHANNELS 3 Zrotation Xrotation Yrotation
						JOINT rclavicle
						{
							OFFSET 0 -0.165322 -0.0298984 
							CHANNELS 3 Zrotation Xrotation Yrotation
							JOINT rhumerus
							{
								OFFSET 0 0 -0.273337 
								CHANNELS 3 Zrotation Xrotation Yrotation
								JOINT rradius
								{
									OFFSET 0 0 -0.254845 
									CHANNELS 3 Zrotation Xrotation Yrotation
									End Site
									{
										OFFSET 0 0 -0.0849483
									}
								}
							}
						}
					}
					JOINT LowerNeck_phantom
					{
						OFFSET 0 0 0.199349 
						CHANNELS 3 Zrotation Xrotation Yrotation
						JOINT LowerNeck
						{
							OFFSET -0.0127292 -0.000602123 0.105365 
							CHANNELS 3 Zrotation Xrotation Yrotation
							End Site
							{
								OFFSET -0.00424307 -0.000200708 0.0351217
							}
						}
					}
				}
			}
		}
	}
MOTION
Frames:	6
Frame Time:	0.0166667
0.231908 0.885615 -0.042514 88.1384 79.5606 94.9371 8.4678 7.22535 -8.49768 27.3039 3.95079 7.60225 -5.39693 -17.1598 27.2445 1.73628e-005 -3.96814e-006 7.5713 -16.9002 -7.57033 -17.112 -26.0861 -10.938 21.1843 3.01413 5.33148 15.4603 8.09756e-006 -2.70775e-006 29.4641 0.881901 -4.70064 7.84826 -1.95104 -2.41284 2.05815 -0 0 -0 -3.63269 -0.929791 -0.0590268 -23.0843 29.1367 -35.484 -2.01451 -4.33831 -114.938 -6.51227e-006 -2.18347 -14.1781 8.61734 10.9681 -1.65158 -56.9456 -40.4215 -34.8064 15.7685 14.5032 -138.431 -2.24971e-006 -29.7824 -24.4959 -4.03035 12.8275 39.8756 -29.9403 29.6325 -72.5203 
0.232033 0.884149 -0.0446584 88.0218 77.963 94.973 9.63577 7.30601 -8.76334 27.632 4.55391 8.62412 -5.66741 -17.3908 26.6325 6.0291e-006 -9.55294e-007 7.20416 -16.9726 -7.34817 -18.0414 -24.4829 -10.9238 22.5949 2.85762 4.93611 14.8812 6.62579e-006 -2.23763e-007 29.4199 0.781504 -4.84199 7.91718 -1.917 -2.58509 2.01638 -0 0 -0 -3.85419 -1.05938 -0.0713679 -23.0361 29.4161 -35.5932 -2.01712 -4.28632 -115.231 2.90636e-006 -2.181 -14.1648 8.60177 10.9075 -1.63955 -56.458 -40.4017 -34.7502 15.6632 14.4011 -138.427 -2.47784e-006 -29.6514 -24.4711 -3.78409 12.5659 39.6505 -29.4915 29.6457 -72.7211 
0.231999 0.882254 -0.0473827 88.2351 76.2507 94.5953 11.1044 7.49005 -9.14915 27.6598 5.30857 10.011 -5.97273 -17.526 25.8415 -1.77883e-005 4.20542e-006 6.67712 -17.0933 -6.97821 -18.9649 -22.9431 -10.9489 24.1654 2.63279 4.43178 14.2438 -6.83387e-006 3.67911e-006 29.3061 0.611043 -4.96237 8.03192 -1.86453 -2.7585 1.97639 -0 0 -0 -4.12626 -1.16993 -0.0843945 -22.9944 29.6618 -35.681 -2.00137 -4.19174 -115.552 7.33776e-006 -2.19628 -14.1447 8.56067 10.877 -1.6271 -55.8421 -40.4329 -34.643 15.5414 14.3023 -138.385 -5.33104e-006 -29.5482 -24.4295 -3.56707 12.3375 39.4314 -28.979 29.5486 -72.9951 
0.231632 0.879922 -0.0507115 88.7088 74.3672 93.8311 12.7588 7.81898 -9.51074 27.5458 6.16157 11.6282 -6.2794 -17.5503 24.9523 1.60772e-005 -3.22954e-006 5.99258 -17.2572 -6.44461 -19.8034 -21.5375 -11.0166 25.8357 2.33145 3.81168 13.5147 4.75602e-006 3.78971e-006 29.2376 0.417864 -4.98958 8.24315 -1.78862 -2.95333 1.9385 -0 0 -0 -4.45779 -1.28442 -0.100125 -22.9089 29.836 -35.769 -2.0156 -4.15426 -115.911 -5.10818e-006 -2.3615 -14.0959 8.47223 10.8362 -1.60408 -55.0367 -40.5177 -34.4866 15.4179 14.2208 -138.306 4.53367e-006 -29.4139 -24.501 -3.39207 12.0979 39.2043 -28.3742 29.2985 -73.3567 
0.230784 0.877085 -0.054609 89.2363 72.2505 92.8831 14.6634 8.27116 -9.77147 27.3271 7.06035 13.3801 -6.57969 -17.4622 23.974 1.69939e-005 -2.07989e-006 5.18989 -17.4825 -5.7755 -20.559 -20.2452 -11.1287 27.6241 1.96068 3.09417 12.616 6.21265e-006 -3.09743e-006 29.2723 0.226683 -4.96768 8.50978 -1.68177 -3.13369 1.92636 -0 0 -0 -4.84008 -1.43049 -0.121113 -22.7646 29.9194 -35.8412 -2.07532 -4.20544 -116.296 3.25583e-006 -2.57871 -14.0421 8.35077 10.7594 -1.56971 -54.014 -40.6279 -34.3219 15.3379 14.2068 -138.178 -1.61296e-005 -29.2699 -24.547 -3.20915 11.8004 38.9774 -27.6771 28.9077 -73.7686 
0.229425 0.873725 -0.0591211 89.7458 69.8448 91.8672 16.7281 8.85386 -9.90821 27.2255 8.02329 15.1783 -6.90535 -17.3844 22.9353 -6.99191e-006 2.71266e-006 4.29461 -17.5531 -5.00458 -21.1976 -19.124 -11.2873 29.4433 1.51683 2.2978 11.5571 9.85032e-007 -1.46902e-006 29.3342 0.0393579 -4.94908 8.7192 -1.56726 -3.25526 1.95443 -0 0 -0 -5.21483 -1.61479 -0.147362 -22.5705 29.8744 -35.8412 -2.15451 -4.28943 -116.702 -1.31854e-006 -2.63992 -14.0086 8.21805 10.647 -1.52849 -52.6352 -40.7934 -34.1177 15.3441 14.2913 -138.025 5.53848e-006 -29.0117 -24.5416 -2.99141 11.4011 38.7653 -26.8841 28.3511 -74.1529 
